<mxfile host="app.diagrams.net" agent="Mozilla/5.0 (Windows NT 10.0; Win64; x64; rv:133.0) Gecko/20100101 Firefox/133.0" version="24.9.1">
  <diagram name="Seite-1" id="Sj8U_-DwI7Knxy_D1fmP">
    <mxGraphModel dx="1461" dy="775" grid="1" gridSize="10" guides="1" tooltips="1" connect="1" arrows="1" fold="1" page="1" pageScale="1" pageWidth="827" pageHeight="1169" math="0" shadow="0">
      <root>
        <mxCell id="0" />
        <mxCell id="1" parent="0" />
        <mxCell id="ETn6ECXSMYjD5wPIMApW-3" value="&lt;div&gt;Löwen&lt;/div&gt;&lt;div&gt;füttern&lt;br&gt;&lt;/div&gt;" style="rounded=0;whiteSpace=wrap;html=1;" parent="1" vertex="1">
          <mxGeometry x="320" y="210" width="50" height="50" as="geometry" />
        </mxCell>
        <mxCell id="ETn6ECXSMYjD5wPIMApW-5" value="" style="shape=note2;size=25;childLayout=stackLayout;horizontalStack=0;resizeParent=1;resizeParentMax=0;resizeLast=0;collapsible=0;marginBottom=0;html=1;container=1;" parent="1" vertex="1">
          <mxGeometry x="40" y="120" width="160" height="50" as="geometry" />
        </mxCell>
        <mxCell id="ETn6ECXSMYjD5wPIMApW-6" value="&amp;lt;&amp;lt;localPrecondition&amp;gt;&amp;gt;" style="text;html=1;strokeColor=none;fillColor=none;align=left;verticalAlign=middle;spacingLeft=4;spacingRight=4;overflow=hidden;rotatable=0;points=[[0,0.5],[1,0.5]];portConstraint=eastwest;whiteSpace=wrap;" parent="ETn6ECXSMYjD5wPIMApW-5" vertex="1">
          <mxGeometry width="160" height="25" as="geometry" />
        </mxCell>
        <mxCell id="ETn6ECXSMYjD5wPIMApW-7" value="Fleisch geladen" style="text;html=1;strokeColor=none;fillColor=none;align=left;verticalAlign=middle;spacingLeft=4;spacingRight=4;overflow=hidden;rotatable=0;points=[[0,0.5],[1,0.5]];portConstraint=eastwest;whiteSpace=wrap;" parent="ETn6ECXSMYjD5wPIMApW-5" vertex="1">
          <mxGeometry y="25" width="160" height="25" as="geometry" />
        </mxCell>
        <mxCell id="ETn6ECXSMYjD5wPIMApW-9" value="" style="shape=note2;size=25;childLayout=stackLayout;horizontalStack=0;resizeParent=1;resizeParentMax=0;resizeLast=0;collapsible=0;marginBottom=0;html=1;container=1;" parent="1" vertex="1">
          <mxGeometry x="40" y="300" width="160" height="50" as="geometry" />
        </mxCell>
        <mxCell id="ETn6ECXSMYjD5wPIMApW-10" value="&amp;lt;&amp;lt;localPostcondition&amp;gt;&amp;gt;" style="text;html=1;strokeColor=none;fillColor=none;align=left;verticalAlign=middle;spacingLeft=4;spacingRight=4;overflow=hidden;rotatable=0;points=[[0,0.5],[1,0.5]];portConstraint=eastwest;whiteSpace=wrap;" parent="ETn6ECXSMYjD5wPIMApW-9" vertex="1">
          <mxGeometry width="160" height="25" as="geometry" />
        </mxCell>
        <mxCell id="ETn6ECXSMYjD5wPIMApW-11" value="Löwen sind satt" style="text;html=1;strokeColor=none;fillColor=none;align=left;verticalAlign=middle;spacingLeft=4;spacingRight=4;overflow=hidden;rotatable=0;points=[[0,0.5],[1,0.5]];portConstraint=eastwest;whiteSpace=wrap;" parent="ETn6ECXSMYjD5wPIMApW-9" vertex="1">
          <mxGeometry y="25" width="160" height="25" as="geometry" />
        </mxCell>
        <mxCell id="ETn6ECXSMYjD5wPIMApW-13" value="Löwen &#xa;sind satt" style="ellipse;" parent="1" vertex="1">
          <mxGeometry x="320" y="300" width="51" height="50" as="geometry" />
        </mxCell>
        <mxCell id="ETn6ECXSMYjD5wPIMApW-14" value="" style="endArrow=classic;html=1;rounded=0;" parent="1" source="QBsdwB0Gv47LoBDKz80t-27" target="ETn6ECXSMYjD5wPIMApW-3" edge="1">
          <mxGeometry width="50" height="50" relative="1" as="geometry">
            <mxPoint x="290.4999999999998" y="180" as="sourcePoint" />
            <mxPoint x="361" y="300" as="targetPoint" />
          </mxGeometry>
        </mxCell>
        <mxCell id="ETn6ECXSMYjD5wPIMApW-15" value="" style="endArrow=classic;html=1;rounded=0;" parent="1" source="ETn6ECXSMYjD5wPIMApW-3" target="ETn6ECXSMYjD5wPIMApW-13" edge="1">
          <mxGeometry width="50" height="50" relative="1" as="geometry">
            <mxPoint x="306" y="211" as="sourcePoint" />
            <mxPoint x="306" y="261" as="targetPoint" />
          </mxGeometry>
        </mxCell>
        <mxCell id="ETn6ECXSMYjD5wPIMApW-16" value="" style="endArrow=none;html=1;rounded=0;endFill=0;dashed=1;" parent="1" source="QBsdwB0Gv47LoBDKz80t-28" edge="1">
          <mxGeometry width="50" height="50" relative="1" as="geometry">
            <mxPoint x="-23" y="304" as="sourcePoint" />
            <mxPoint x="107" y="249" as="targetPoint" />
          </mxGeometry>
        </mxCell>
        <mxCell id="ETn6ECXSMYjD5wPIMApW-17" value="" style="endArrow=none;html=1;rounded=0;dashed=1;endFill=0;exitX=0.5;exitY=1;exitDx=0;exitDy=0;" parent="1" source="QBsdwB0Gv47LoBDKz80t-28" target="ETn6ECXSMYjD5wPIMApW-10" edge="1">
          <mxGeometry width="50" height="50" relative="1" as="geometry">
            <mxPoint x="107" y="299" as="sourcePoint" />
            <mxPoint x="113" y="254" as="targetPoint" />
          </mxGeometry>
        </mxCell>
        <mxCell id="ETn6ECXSMYjD5wPIMApW-18" value="&lt;div&gt;Löwen&lt;/div&gt;&lt;div&gt;füttern&lt;br&gt;&lt;/div&gt;" style="rounded=1;whiteSpace=wrap;html=1;" parent="1" vertex="1">
          <mxGeometry x="95" y="25" width="60" height="40" as="geometry" />
        </mxCell>
        <mxCell id="ETn6ECXSMYjD5wPIMApW-20" value="&lt;div&gt;Löwen&lt;/div&gt;&lt;div&gt;füttern&lt;br&gt;&lt;/div&gt;" style="rounded=0;whiteSpace=wrap;html=1;" parent="1" vertex="1">
          <mxGeometry x="600" y="300" width="50" height="45" as="geometry" />
        </mxCell>
        <mxCell id="ETn6ECXSMYjD5wPIMApW-21" value="&lt;div&gt;Löwen&lt;/div&gt;&lt;div&gt;füttern&lt;br&gt;&lt;/div&gt;" style="rounded=1;whiteSpace=wrap;html=1;" parent="1" vertex="1">
          <mxGeometry x="480" y="230" width="60" height="40" as="geometry" />
        </mxCell>
        <mxCell id="ETn6ECXSMYjD5wPIMApW-28" value="Fleisch&#xa;geladen" style="ellipse;" parent="1" vertex="1">
          <mxGeometry x="600" y="210" width="50" height="50" as="geometry" />
        </mxCell>
        <mxCell id="ETn6ECXSMYjD5wPIMApW-30" value="" style="endArrow=classic;html=1;rounded=0;" parent="1" source="ETn6ECXSMYjD5wPIMApW-28" target="ETn6ECXSMYjD5wPIMApW-20" edge="1">
          <mxGeometry width="50" height="50" relative="1" as="geometry">
            <mxPoint x="725" y="440" as="sourcePoint" />
            <mxPoint x="775" y="390" as="targetPoint" />
          </mxGeometry>
        </mxCell>
        <mxCell id="ETn6ECXSMYjD5wPIMApW-32" value="" style="endArrow=open;html=1;rounded=0;endFill=0;" parent="1" source="ETn6ECXSMYjD5wPIMApW-36" target="ETn6ECXSMYjD5wPIMApW-21" edge="1">
          <mxGeometry width="50" height="50" relative="1" as="geometry">
            <mxPoint x="519" y="190" as="sourcePoint" />
            <mxPoint x="539" y="230" as="targetPoint" />
          </mxGeometry>
        </mxCell>
        <mxCell id="ETn6ECXSMYjD5wPIMApW-34" value="&lt;div&gt;Fleisch&lt;/div&gt;&lt;div&gt;laden&lt;br&gt;&lt;/div&gt;" style="rounded=0;whiteSpace=wrap;html=1;" parent="1" vertex="1">
          <mxGeometry x="600" y="120" width="50" height="50" as="geometry" />
        </mxCell>
        <mxCell id="ETn6ECXSMYjD5wPIMApW-35" value="" style="endArrow=classic;html=1;rounded=0;" parent="1" source="ETn6ECXSMYjD5wPIMApW-34" target="ETn6ECXSMYjD5wPIMApW-28" edge="1">
          <mxGeometry width="50" height="50" relative="1" as="geometry">
            <mxPoint x="720" y="290" as="sourcePoint" />
            <mxPoint x="810" y="180" as="targetPoint" />
          </mxGeometry>
        </mxCell>
        <mxCell id="ETn6ECXSMYjD5wPIMApW-37" value="" style="endArrow=none;html=1;rounded=0;endFill=0;dashed=1;" parent="1" target="ETn6ECXSMYjD5wPIMApW-36" edge="1">
          <mxGeometry width="50" height="50" relative="1" as="geometry">
            <mxPoint x="519" y="190" as="sourcePoint" />
            <mxPoint x="519" y="255" as="targetPoint" />
          </mxGeometry>
        </mxCell>
        <mxCell id="ETn6ECXSMYjD5wPIMApW-36" value="&lt;div&gt;Fleisch&lt;/div&gt;&lt;div&gt;laden&lt;br&gt;&lt;/div&gt;" style="rounded=1;whiteSpace=wrap;html=1;" parent="1" vertex="1">
          <mxGeometry x="480" y="160" width="60" height="40" as="geometry" />
        </mxCell>
        <mxCell id="ETn6ECXSMYjD5wPIMApW-38" value="" style="endArrow=none;html=1;rounded=0;" parent="1" edge="1">
          <mxGeometry width="50" height="50" relative="1" as="geometry">
            <mxPoint x="30" y="400" as="sourcePoint" />
            <mxPoint x="750" y="400" as="targetPoint" />
          </mxGeometry>
        </mxCell>
        <mxCell id="ETn6ECXSMYjD5wPIMApW-40" value="" style="endArrow=none;html=1;rounded=0;" parent="1" edge="1">
          <mxGeometry width="50" height="50" relative="1" as="geometry">
            <mxPoint y="100" as="sourcePoint" />
            <mxPoint x="440" y="100" as="targetPoint" />
          </mxGeometry>
        </mxCell>
        <mxCell id="ETn6ECXSMYjD5wPIMApW-47" value="" style="rounded=0;whiteSpace=wrap;html=1;" parent="1" vertex="1">
          <mxGeometry x="60" y="440" width="100" height="140" as="geometry" />
        </mxCell>
        <mxCell id="ETn6ECXSMYjD5wPIMApW-48" value="Tierpfleger" style="rounded=0;whiteSpace=wrap;html=1;horizontal=0;" parent="1" vertex="1">
          <mxGeometry x="40" y="440" width="20" height="140" as="geometry" />
        </mxCell>
        <mxCell id="ETn6ECXSMYjD5wPIMApW-49" value="Löwe" style="rounded=0;whiteSpace=wrap;html=1;horizontal=0;" parent="1" vertex="1">
          <mxGeometry x="40" y="580" width="20" height="140" as="geometry" />
        </mxCell>
        <mxCell id="ETn6ECXSMYjD5wPIMApW-50" value="" style="rounded=0;whiteSpace=wrap;html=1;" parent="1" vertex="1">
          <mxGeometry x="60" y="580" width="100" height="140" as="geometry" />
        </mxCell>
        <mxCell id="ETn6ECXSMYjD5wPIMApW-52" value="&lt;div&gt;Fleisch&lt;/div&gt;&lt;div&gt;fressen&lt;br&gt;&lt;/div&gt;" style="rounded=1;whiteSpace=wrap;html=1;" parent="1" vertex="1">
          <mxGeometry x="80" y="655" width="60" height="40" as="geometry" />
        </mxCell>
        <mxCell id="ETn6ECXSMYjD5wPIMApW-53" value="" style="endArrow=open;html=1;rounded=0;endFill=0;" parent="1" source="ETn6ECXSMYjD5wPIMApW-55" target="ETn6ECXSMYjD5wPIMApW-52" edge="1">
          <mxGeometry width="50" height="50" relative="1" as="geometry">
            <mxPoint x="120" y="480" as="sourcePoint" />
            <mxPoint x="140" y="520" as="targetPoint" />
          </mxGeometry>
        </mxCell>
        <mxCell id="ETn6ECXSMYjD5wPIMApW-54" value="" style="endArrow=none;html=1;rounded=0;endFill=0;dashed=1;" parent="1" target="ETn6ECXSMYjD5wPIMApW-55" edge="1">
          <mxGeometry width="50" height="50" relative="1" as="geometry">
            <mxPoint x="120" y="480" as="sourcePoint" />
            <mxPoint x="120" y="545" as="targetPoint" />
          </mxGeometry>
        </mxCell>
        <mxCell id="ETn6ECXSMYjD5wPIMApW-55" value="&lt;div&gt;Fleisch&lt;/div&gt;&lt;div&gt;füttern&lt;br&gt;&lt;/div&gt;" style="rounded=1;whiteSpace=wrap;html=1;" parent="1" vertex="1">
          <mxGeometry x="80" y="465" width="60" height="40" as="geometry" />
        </mxCell>
        <mxCell id="ETn6ECXSMYjD5wPIMApW-56" value="" style="rounded=0;whiteSpace=wrap;html=1;" parent="1" vertex="1">
          <mxGeometry x="261" y="440" width="100" height="100" as="geometry" />
        </mxCell>
        <mxCell id="ETn6ECXSMYjD5wPIMApW-57" value="Tierpfleger" style="rounded=0;whiteSpace=wrap;html=1;horizontal=0;" parent="1" vertex="1">
          <mxGeometry x="241" y="440" width="20" height="100" as="geometry" />
        </mxCell>
        <mxCell id="ETn6ECXSMYjD5wPIMApW-58" value="Löwe" style="rounded=0;whiteSpace=wrap;html=1;horizontal=0;" parent="1" vertex="1">
          <mxGeometry x="241" y="540" width="20" height="180" as="geometry" />
        </mxCell>
        <mxCell id="ETn6ECXSMYjD5wPIMApW-59" value="" style="rounded=0;whiteSpace=wrap;html=1;" parent="1" vertex="1">
          <mxGeometry x="261" y="540" width="100" height="180" as="geometry" />
        </mxCell>
        <mxCell id="ETn6ECXSMYjD5wPIMApW-64" value="Fleisch fressen" style="rounded=0;whiteSpace=wrap;html=1;" parent="1" vertex="1">
          <mxGeometry x="297" y="660" width="50" height="50" as="geometry" />
        </mxCell>
        <mxCell id="ETn6ECXSMYjD5wPIMApW-65" value="Fleisch&#xa;da" style="ellipse;" parent="1" vertex="1">
          <mxGeometry x="297" y="569" width="50" height="50" as="geometry" />
        </mxCell>
        <mxCell id="ETn6ECXSMYjD5wPIMApW-66" value="" style="endArrow=classic;html=1;rounded=0;" parent="1" source="ETn6ECXSMYjD5wPIMApW-65" target="ETn6ECXSMYjD5wPIMApW-64" edge="1">
          <mxGeometry width="50" height="50" relative="1" as="geometry">
            <mxPoint x="332" y="780" as="sourcePoint" />
            <mxPoint x="382" y="730" as="targetPoint" />
          </mxGeometry>
        </mxCell>
        <mxCell id="ETn6ECXSMYjD5wPIMApW-67" value="&lt;div&gt;Fleisch&lt;/div&gt;&lt;div&gt;füttern&lt;br&gt;&lt;/div&gt;" style="rounded=0;whiteSpace=wrap;html=1;" parent="1" vertex="1">
          <mxGeometry x="297" y="454" width="50" height="50" as="geometry" />
        </mxCell>
        <mxCell id="ETn6ECXSMYjD5wPIMApW-68" value="" style="endArrow=classic;html=1;rounded=0;" parent="1" source="ETn6ECXSMYjD5wPIMApW-67" target="ETn6ECXSMYjD5wPIMApW-65" edge="1">
          <mxGeometry width="50" height="50" relative="1" as="geometry">
            <mxPoint x="317" y="630" as="sourcePoint" />
            <mxPoint x="407" y="520" as="targetPoint" />
          </mxGeometry>
        </mxCell>
        <mxCell id="ETn6ECXSMYjD5wPIMApW-69" value="" style="endArrow=none;html=1;rounded=0;" parent="1" edge="1">
          <mxGeometry width="50" height="50" relative="1" as="geometry">
            <mxPoint x="440" y="1110" as="sourcePoint" />
            <mxPoint x="440" y="30" as="targetPoint" />
          </mxGeometry>
        </mxCell>
        <mxCell id="ETn6ECXSMYjD5wPIMApW-70" value="" style="endArrow=none;html=1;rounded=0;" parent="1" edge="1">
          <mxGeometry width="50" height="50" relative="1" as="geometry">
            <mxPoint x="24" y="760" as="sourcePoint" />
            <mxPoint x="804" y="760" as="targetPoint" />
          </mxGeometry>
        </mxCell>
        <mxCell id="ETn6ECXSMYjD5wPIMApW-107" value="Start" style="ellipse;fillColor=strokeColor;html=1;align=right;spacingRight=40;" parent="1" vertex="1">
          <mxGeometry x="105" y="810" width="30" height="30" as="geometry" />
        </mxCell>
        <mxCell id="ETn6ECXSMYjD5wPIMApW-108" value="&lt;div&gt;Fleisch&lt;/div&gt;&lt;div&gt;füttern&lt;br&gt;&lt;/div&gt;" style="rounded=1;whiteSpace=wrap;html=1;" parent="1" vertex="1">
          <mxGeometry x="90" y="875" width="60" height="40" as="geometry" />
        </mxCell>
        <mxCell id="ETn6ECXSMYjD5wPIMApW-109" value="" style="endArrow=open;html=1;rounded=0;endFill=0;" parent="1" source="ETn6ECXSMYjD5wPIMApW-108" target="ETn6ECXSMYjD5wPIMApW-110" edge="1">
          <mxGeometry width="50" height="50" relative="1" as="geometry">
            <mxPoint x="135" y="940" as="sourcePoint" />
            <mxPoint x="201" y="880" as="targetPoint" />
          </mxGeometry>
        </mxCell>
        <mxCell id="ETn6ECXSMYjD5wPIMApW-110" value="&lt;div&gt;Fleisch-&lt;/div&gt;&lt;div&gt;stück&lt;/div&gt;" style="rounded=0;whiteSpace=wrap;html=1;" parent="1" vertex="1">
          <mxGeometry x="95" y="949.75" width="50" height="30" as="geometry" />
        </mxCell>
        <mxCell id="ETn6ECXSMYjD5wPIMApW-111" value="" style="endArrow=open;html=1;rounded=0;endFill=0;align=left;" parent="1" source="ETn6ECXSMYjD5wPIMApW-110" target="ETn6ECXSMYjD5wPIMApW-112" edge="1">
          <mxGeometry width="50" height="50" relative="1" as="geometry">
            <mxPoint x="145" y="970" as="sourcePoint" />
            <mxPoint x="145" y="1009" as="targetPoint" />
          </mxGeometry>
        </mxCell>
        <mxCell id="ETn6ECXSMYjD5wPIMApW-112" value="&lt;div&gt;Fleisch&lt;/div&gt;&lt;div&gt;fressen&lt;br&gt;&lt;/div&gt;" style="rounded=1;whiteSpace=wrap;html=1;" parent="1" vertex="1">
          <mxGeometry x="90" y="1015.5" width="60" height="40" as="geometry" />
        </mxCell>
        <mxCell id="ETn6ECXSMYjD5wPIMApW-113" value="" style="endArrow=open;html=1;rounded=0;endFill=0;entryX=0.5;entryY=0;entryDx=0;entryDy=0;" parent="1" source="ETn6ECXSMYjD5wPIMApW-107" target="ETn6ECXSMYjD5wPIMApW-108" edge="1">
          <mxGeometry width="50" height="50" relative="1" as="geometry">
            <mxPoint x="160" y="890" as="sourcePoint" />
            <mxPoint x="140" y="930" as="targetPoint" />
          </mxGeometry>
        </mxCell>
        <mxCell id="ETn6ECXSMYjD5wPIMApW-114" value="" style="endArrow=open;html=1;rounded=0;endFill=0;" parent="1" source="ETn6ECXSMYjD5wPIMApW-112" target="ETn6ECXSMYjD5wPIMApW-115" edge="1">
          <mxGeometry width="50" height="50" relative="1" as="geometry">
            <mxPoint x="155" y="970.5" as="sourcePoint" />
            <mxPoint x="120" y="1080.5" as="targetPoint" />
          </mxGeometry>
        </mxCell>
        <mxCell id="ETn6ECXSMYjD5wPIMApW-115" value="Ende" style="shape=sumEllipse;perimeter=ellipsePerimeter;html=1;backgroundOutline=1;align=right;verticalAlign=middle;spacingRight=40;" parent="1" vertex="1">
          <mxGeometry x="105" y="1090.25" width="30" height="30" as="geometry" />
        </mxCell>
        <mxCell id="ETn6ECXSMYjD5wPIMApW-121" value="&lt;div&gt;Fleisch&lt;/div&gt;&lt;div&gt;füttern&lt;br&gt;&lt;/div&gt;" style="rounded=0;whiteSpace=wrap;html=1;" parent="1" vertex="1">
          <mxGeometry x="250" y="870" width="49" height="50" as="geometry" />
        </mxCell>
        <mxCell id="ETn6ECXSMYjD5wPIMApW-122" value="" style="endArrow=classic;html=1;rounded=0;" parent="1" source="ETn6ECXSMYjD5wPIMApW-121" target="ETn6ECXSMYjD5wPIMApW-123" edge="1">
          <mxGeometry width="50" height="50" relative="1" as="geometry">
            <mxPoint x="287" y="1046.58" as="sourcePoint" />
            <mxPoint x="377" y="936.58" as="targetPoint" />
          </mxGeometry>
        </mxCell>
        <mxCell id="ETn6ECXSMYjD5wPIMApW-123" value="Fleisch-&#xa;stücke" style="ellipse;align=center;spacingRight=100;spacingBottom=0;" parent="1" vertex="1">
          <mxGeometry x="250" y="939.5" width="50" height="50.5" as="geometry" />
        </mxCell>
        <mxCell id="ETn6ECXSMYjD5wPIMApW-124" value="" style="endArrow=classic;html=1;rounded=0;align=right;" parent="1" source="ETn6ECXSMYjD5wPIMApW-123" target="ETn6ECXSMYjD5wPIMApW-125" edge="1">
          <mxGeometry x="-0.0009" width="50" height="50" relative="1" as="geometry">
            <mxPoint x="292" y="1196.58" as="sourcePoint" />
            <mxPoint x="342" y="1146.58" as="targetPoint" />
            <mxPoint as="offset" />
          </mxGeometry>
        </mxCell>
        <mxCell id="ETn6ECXSMYjD5wPIMApW-125" value="&lt;div&gt;Fleisch&lt;/div&gt;&lt;div&gt;fressen&lt;br&gt;&lt;/div&gt;" style="rounded=0;whiteSpace=wrap;html=1;" parent="1" vertex="1">
          <mxGeometry x="250" y="1010.5" width="49" height="50" as="geometry" />
        </mxCell>
        <mxCell id="ETn6ECXSMYjD5wPIMApW-127" value="" style="endArrow=classic;html=1;rounded=0;" parent="1" source="QBsdwB0Gv47LoBDKz80t-75" target="ETn6ECXSMYjD5wPIMApW-121" edge="1">
          <mxGeometry width="50" height="50" relative="1" as="geometry">
            <mxPoint x="290.2917960674822" y="849.9964078650361" as="sourcePoint" />
            <mxPoint x="297" y="881.58" as="targetPoint" />
          </mxGeometry>
        </mxCell>
        <mxCell id="ETn6ECXSMYjD5wPIMApW-132" value="&lt;font style=&quot;font-size: 16px;&quot;&gt;s&lt;sub&gt;e&lt;/sub&gt;&lt;/font&gt;" style="ellipse;whiteSpace=wrap;html=1;aspect=fixed;align=center;spacingLeft=75;" parent="1" vertex="1">
          <mxGeometry x="250.5" y="1080.5" width="49.5" height="49.5" as="geometry" />
        </mxCell>
        <mxCell id="QBsdwB0Gv47LoBDKz80t-1" value="Start" style="ellipse;fillColor=strokeColor;html=1;align=right;spacingRight=40;" parent="1" vertex="1">
          <mxGeometry x="540" y="790.25" width="30" height="30" as="geometry" />
        </mxCell>
        <mxCell id="QBsdwB0Gv47LoBDKz80t-2" value="Fisch laden" style="rounded=1;whiteSpace=wrap;html=1;" parent="1" vertex="1">
          <mxGeometry x="510" y="850.25" width="90" height="30" as="geometry" />
        </mxCell>
        <mxCell id="QBsdwB0Gv47LoBDKz80t-3" value="" style="endArrow=open;html=1;rounded=0;endFill=0;entryX=0.5;entryY=0;entryDx=0;entryDy=0;" parent="1" source="QBsdwB0Gv47LoBDKz80t-2" target="QBsdwB0Gv47LoBDKz80t-20" edge="1">
          <mxGeometry width="50" height="50" relative="1" as="geometry">
            <mxPoint x="578" y="920.25" as="sourcePoint" />
            <mxPoint x="555" y="930.25" as="targetPoint" />
          </mxGeometry>
        </mxCell>
        <mxCell id="QBsdwB0Gv47LoBDKz80t-5" value="[Fisch frisch]" style="endArrow=open;html=1;rounded=0;endFill=0;align=left;exitX=0.5;exitY=1;exitDx=0;exitDy=0;spacing=2;verticalAlign=middle;spacingLeft=2;spacingBottom=3;labelBackgroundColor=none;" parent="1" source="QBsdwB0Gv47LoBDKz80t-20" target="QBsdwB0Gv47LoBDKz80t-6" edge="1">
          <mxGeometry width="50" height="50" relative="1" as="geometry">
            <mxPoint x="555" y="970.25" as="sourcePoint" />
            <mxPoint x="588" y="989.25" as="targetPoint" />
            <mxPoint as="offset" />
          </mxGeometry>
        </mxCell>
        <mxCell id="QBsdwB0Gv47LoBDKz80t-6" value="Robben füttern" style="rounded=1;whiteSpace=wrap;html=1;" parent="1" vertex="1">
          <mxGeometry x="510" y="970.25" width="90" height="30" as="geometry" />
        </mxCell>
        <mxCell id="QBsdwB0Gv47LoBDKz80t-7" value="" style="endArrow=open;html=1;rounded=0;endFill=0;entryX=0.5;entryY=0;entryDx=0;entryDy=0;" parent="1" source="QBsdwB0Gv47LoBDKz80t-1" target="QBsdwB0Gv47LoBDKz80t-2" edge="1">
          <mxGeometry width="50" height="50" relative="1" as="geometry">
            <mxPoint x="603" y="870.25" as="sourcePoint" />
            <mxPoint x="583" y="910.25" as="targetPoint" />
          </mxGeometry>
        </mxCell>
        <mxCell id="QBsdwB0Gv47LoBDKz80t-8" value="" style="endArrow=open;html=1;rounded=0;endFill=0;entryX=0.5;entryY=0;entryDx=0;entryDy=0;" parent="1" source="QBsdwB0Gv47LoBDKz80t-6" target="QBsdwB0Gv47LoBDKz80t-21" edge="1">
          <mxGeometry width="50" height="50" relative="1" as="geometry">
            <mxPoint x="598" y="960.25" as="sourcePoint" />
            <mxPoint x="555" y="1080.25" as="targetPoint" />
          </mxGeometry>
        </mxCell>
        <mxCell id="QBsdwB0Gv47LoBDKz80t-10" value="Fisch laden" style="rounded=0;whiteSpace=wrap;html=1;" parent="1" vertex="1">
          <mxGeometry x="720.25" y="870.25" width="50" height="50" as="geometry" />
        </mxCell>
        <mxCell id="QBsdwB0Gv47LoBDKz80t-11" value="" style="endArrow=classic;html=1;rounded=0;" parent="1" source="QBsdwB0Gv47LoBDKz80t-10" target="QBsdwB0Gv47LoBDKz80t-12" edge="1">
          <mxGeometry width="50" height="50" relative="1" as="geometry">
            <mxPoint x="740.25" y="1015.25" as="sourcePoint" />
            <mxPoint x="830.25" y="905.25" as="targetPoint" />
          </mxGeometry>
        </mxCell>
        <mxCell id="QBsdwB0Gv47LoBDKz80t-12" value="" style="ellipse;align=center;spacingRight=100;spacingBottom=70;" parent="1" vertex="1">
          <mxGeometry x="720.25" y="939.75" width="50" height="50.5" as="geometry" />
        </mxCell>
        <mxCell id="QBsdwB0Gv47LoBDKz80t-13" value="" style="endArrow=classic;html=1;rounded=0;align=right;" parent="1" source="QBsdwB0Gv47LoBDKz80t-12" target="QBsdwB0Gv47LoBDKz80t-14" edge="1">
          <mxGeometry x="-0.0009" width="50" height="50" relative="1" as="geometry">
            <mxPoint x="745.25" y="1165.25" as="sourcePoint" />
            <mxPoint x="795.25" y="1115.25" as="targetPoint" />
            <mxPoint as="offset" />
          </mxGeometry>
        </mxCell>
        <mxCell id="QBsdwB0Gv47LoBDKz80t-14" value="Robben füttern" style="rounded=0;whiteSpace=wrap;html=1;" parent="1" vertex="1">
          <mxGeometry x="720.25" y="1010.75" width="50" height="50" as="geometry" />
        </mxCell>
        <mxCell id="QBsdwB0Gv47LoBDKz80t-16" value="" style="endArrow=classic;html=1;rounded=0;" parent="1" source="QBsdwB0Gv47LoBDKz80t-77" target="QBsdwB0Gv47LoBDKz80t-10" edge="1">
          <mxGeometry width="50" height="50" relative="1" as="geometry">
            <mxPoint x="810.25" y="890.25" as="sourcePoint" />
            <mxPoint x="750.25" y="850.25" as="targetPoint" />
          </mxGeometry>
        </mxCell>
        <mxCell id="QBsdwB0Gv47LoBDKz80t-17" value="" style="endArrow=classic;html=1;rounded=0;" parent="1" source="QBsdwB0Gv47LoBDKz80t-14" target="QBsdwB0Gv47LoBDKz80t-79" edge="1">
          <mxGeometry width="50" height="50" relative="1" as="geometry">
            <mxPoint x="760.25" y="830.25" as="sourcePoint" />
            <mxPoint x="750.25" y="1130.25" as="targetPoint" />
          </mxGeometry>
        </mxCell>
        <mxCell id="QBsdwB0Gv47LoBDKz80t-19" value="Ende" style="ellipse;html=1;shape=endState;fillColor=strokeColor;align=right;spacingRight=40;" parent="1" vertex="1">
          <mxGeometry x="540" y="1100.25" width="30" height="30" as="geometry" />
        </mxCell>
        <mxCell id="QBsdwB0Gv47LoBDKz80t-20" value="" style="rhombus;" parent="1" vertex="1">
          <mxGeometry x="540" y="910.25" width="30" height="40" as="geometry" />
        </mxCell>
        <mxCell id="QBsdwB0Gv47LoBDKz80t-21" value="" style="rhombus;" parent="1" vertex="1">
          <mxGeometry x="540" y="1030.25" width="30" height="40" as="geometry" />
        </mxCell>
        <mxCell id="QBsdwB0Gv47LoBDKz80t-22" value="[else]" style="endArrow=open;html=1;rounded=0;endFill=0;entryX=0;entryY=0.5;entryDx=0;entryDy=0;exitX=0;exitY=0.5;exitDx=0;exitDy=0;verticalAlign=middle;align=left;spacingBottom=140;labelBackgroundColor=none;" parent="1" source="QBsdwB0Gv47LoBDKz80t-20" target="QBsdwB0Gv47LoBDKz80t-21" edge="1">
          <mxGeometry width="50" height="50" relative="1" as="geometry">
            <mxPoint x="565" y="890.25" as="sourcePoint" />
            <mxPoint x="565" y="920.25" as="targetPoint" />
            <Array as="points">
              <mxPoint x="489" y="930.25" />
              <mxPoint x="489" y="990.25" />
              <mxPoint x="489" y="1050.25" />
            </Array>
          </mxGeometry>
        </mxCell>
        <mxCell id="QBsdwB0Gv47LoBDKz80t-23" value="" style="endArrow=open;html=1;rounded=0;endFill=0;entryX=0.5;entryY=0;entryDx=0;entryDy=0;exitX=0.5;exitY=1;exitDx=0;exitDy=0;" parent="1" source="QBsdwB0Gv47LoBDKz80t-21" target="QBsdwB0Gv47LoBDKz80t-19" edge="1">
          <mxGeometry width="50" height="50" relative="1" as="geometry">
            <mxPoint x="575" y="900.25" as="sourcePoint" />
            <mxPoint x="575" y="930.25" as="targetPoint" />
          </mxGeometry>
        </mxCell>
        <mxCell id="QBsdwB0Gv47LoBDKz80t-26" value="&lt;div&gt;Löwen&lt;/div&gt;&lt;div&gt;füttern&lt;br&gt;&lt;/div&gt;" style="rounded=0;whiteSpace=wrap;html=1;" parent="1" vertex="1">
          <mxGeometry x="320" y="25" width="50" height="50" as="geometry" />
        </mxCell>
        <mxCell id="QBsdwB0Gv47LoBDKz80t-27" value="Fleisch &#xa;geladen" style="ellipse;" parent="1" vertex="1">
          <mxGeometry x="320" y="120" width="50" height="50" as="geometry" />
        </mxCell>
        <mxCell id="QBsdwB0Gv47LoBDKz80t-29" value="" style="endArrow=none;html=1;rounded=0;endFill=0;dashed=1;entryX=0.5;entryY=0;entryDx=0;entryDy=0;" parent="1" source="ETn6ECXSMYjD5wPIMApW-7" target="QBsdwB0Gv47LoBDKz80t-28" edge="1">
          <mxGeometry width="50" height="50" relative="1" as="geometry">
            <mxPoint x="118" y="170" as="sourcePoint" />
            <mxPoint x="50" y="210" as="targetPoint" />
          </mxGeometry>
        </mxCell>
        <mxCell id="QBsdwB0Gv47LoBDKz80t-28" value="&lt;div&gt;Löwen&lt;/div&gt;&lt;div&gt;füttern&lt;br&gt;&lt;/div&gt;" style="rounded=1;whiteSpace=wrap;html=1;" parent="1" vertex="1">
          <mxGeometry x="90" y="215" width="60" height="40" as="geometry" />
        </mxCell>
        <mxCell id="QBsdwB0Gv47LoBDKz80t-44" value="" style="rounded=0;whiteSpace=wrap;html=1;" parent="1" vertex="1">
          <mxGeometry x="660" y="440" width="100" height="100" as="geometry" />
        </mxCell>
        <mxCell id="QBsdwB0Gv47LoBDKz80t-45" value="Tierpfleger" style="rounded=0;whiteSpace=wrap;html=1;horizontal=0;" parent="1" vertex="1">
          <mxGeometry x="640" y="440" width="20" height="100" as="geometry" />
        </mxCell>
        <mxCell id="QBsdwB0Gv47LoBDKz80t-46" value="Löwe" style="rounded=0;whiteSpace=wrap;html=1;horizontal=0;" parent="1" vertex="1">
          <mxGeometry x="640" y="540" width="20" height="180" as="geometry" />
        </mxCell>
        <mxCell id="QBsdwB0Gv47LoBDKz80t-47" value="" style="rounded=0;whiteSpace=wrap;html=1;" parent="1" vertex="1">
          <mxGeometry x="660" y="540" width="100" height="180" as="geometry" />
        </mxCell>
        <mxCell id="QBsdwB0Gv47LoBDKz80t-48" value="Fleisch fressen" style="rounded=0;whiteSpace=wrap;html=1;" parent="1" vertex="1">
          <mxGeometry x="696" y="660" width="50" height="50" as="geometry" />
        </mxCell>
        <mxCell id="QBsdwB0Gv47LoBDKz80t-49" value="Fleisch-&#xa;stück" style="ellipse;align=center;verticalAlign=middle;spacingRight=70;spacingBottom=70;" parent="1" vertex="1">
          <mxGeometry x="696" y="569" width="50" height="50" as="geometry" />
        </mxCell>
        <mxCell id="QBsdwB0Gv47LoBDKz80t-50" value="2" style="endArrow=classic;html=1;rounded=0;align=right;spacingRight=2;verticalAlign=middle;" parent="1" source="QBsdwB0Gv47LoBDKz80t-49" target="QBsdwB0Gv47LoBDKz80t-48" edge="1">
          <mxGeometry width="50" height="50" relative="1" as="geometry">
            <mxPoint x="731" y="780" as="sourcePoint" />
            <mxPoint x="781" y="730" as="targetPoint" />
          </mxGeometry>
        </mxCell>
        <mxCell id="QBsdwB0Gv47LoBDKz80t-51" value="&lt;div&gt;Fleisch&lt;/div&gt;&lt;div&gt;füttern&lt;br&gt;&lt;/div&gt;" style="rounded=0;whiteSpace=wrap;html=1;" parent="1" vertex="1">
          <mxGeometry x="696" y="454" width="50" height="50" as="geometry" />
        </mxCell>
        <mxCell id="QBsdwB0Gv47LoBDKz80t-52" value="" style="endArrow=classic;html=1;rounded=0;" parent="1" source="QBsdwB0Gv47LoBDKz80t-51" target="QBsdwB0Gv47LoBDKz80t-49" edge="1">
          <mxGeometry width="50" height="50" relative="1" as="geometry">
            <mxPoint x="716" y="630" as="sourcePoint" />
            <mxPoint x="806" y="520" as="targetPoint" />
          </mxGeometry>
        </mxCell>
        <mxCell id="QBsdwB0Gv47LoBDKz80t-62" value="" style="rounded=0;whiteSpace=wrap;html=1;" parent="1" vertex="1">
          <mxGeometry x="500" y="440" width="100" height="140" as="geometry" />
        </mxCell>
        <mxCell id="QBsdwB0Gv47LoBDKz80t-63" value="Tierpfleger" style="rounded=0;whiteSpace=wrap;html=1;horizontal=0;" parent="1" vertex="1">
          <mxGeometry x="480" y="440" width="20" height="140" as="geometry" />
        </mxCell>
        <mxCell id="QBsdwB0Gv47LoBDKz80t-64" value="Löwe" style="rounded=0;whiteSpace=wrap;html=1;horizontal=0;" parent="1" vertex="1">
          <mxGeometry x="480" y="580" width="20" height="140" as="geometry" />
        </mxCell>
        <mxCell id="QBsdwB0Gv47LoBDKz80t-65" value="" style="rounded=0;whiteSpace=wrap;html=1;" parent="1" vertex="1">
          <mxGeometry x="500" y="580" width="100" height="140" as="geometry" />
        </mxCell>
        <mxCell id="QBsdwB0Gv47LoBDKz80t-66" value="&lt;div&gt;Fleisch&lt;/div&gt;&lt;div&gt;fressen&lt;br&gt;&lt;/div&gt;" style="rounded=1;whiteSpace=wrap;html=1;" parent="1" vertex="1">
          <mxGeometry x="520" y="655" width="60" height="40" as="geometry" />
        </mxCell>
        <mxCell id="QBsdwB0Gv47LoBDKz80t-67" value="2" style="endArrow=open;html=1;rounded=0;endFill=0;align=right;spacingRight=2;" parent="1" source="QBsdwB0Gv47LoBDKz80t-70" target="QBsdwB0Gv47LoBDKz80t-66" edge="1">
          <mxGeometry width="50" height="50" relative="1" as="geometry">
            <mxPoint x="560" y="480" as="sourcePoint" />
            <mxPoint x="580" y="520" as="targetPoint" />
          </mxGeometry>
        </mxCell>
        <mxCell id="QBsdwB0Gv47LoBDKz80t-68" value="" style="endArrow=none;html=1;rounded=0;endFill=0;dashed=1;" parent="1" target="QBsdwB0Gv47LoBDKz80t-69" edge="1">
          <mxGeometry width="50" height="50" relative="1" as="geometry">
            <mxPoint x="560" y="480" as="sourcePoint" />
            <mxPoint x="560" y="545" as="targetPoint" />
          </mxGeometry>
        </mxCell>
        <mxCell id="QBsdwB0Gv47LoBDKz80t-69" value="&lt;div&gt;Fleisch&lt;/div&gt;&lt;div&gt;füttern&lt;br&gt;&lt;/div&gt;" style="rounded=1;whiteSpace=wrap;html=1;" parent="1" vertex="1">
          <mxGeometry x="520" y="465" width="60" height="40" as="geometry" />
        </mxCell>
        <mxCell id="QBsdwB0Gv47LoBDKz80t-71" value="" style="endArrow=open;html=1;rounded=0;endFill=0;" parent="1" source="QBsdwB0Gv47LoBDKz80t-69" target="QBsdwB0Gv47LoBDKz80t-70" edge="1">
          <mxGeometry width="50" height="50" relative="1" as="geometry">
            <mxPoint x="550" y="505" as="sourcePoint" />
            <mxPoint x="550" y="655" as="targetPoint" />
          </mxGeometry>
        </mxCell>
        <mxCell id="QBsdwB0Gv47LoBDKz80t-70" value="&lt;div style=&quot;font-size: 11px;&quot;&gt;Fleisch-&lt;/div&gt;&lt;div style=&quot;font-size: 11px;&quot;&gt;stück&lt;/div&gt;&lt;div style=&quot;font-size: 11px;&quot;&gt;[genießbar]&lt;br style=&quot;font-size: 11px;&quot;&gt;&lt;/div&gt;" style="rounded=0;whiteSpace=wrap;html=1;fontSize=11;" parent="1" vertex="1">
          <mxGeometry x="520" y="550" width="60" height="60" as="geometry" />
        </mxCell>
        <mxCell id="QBsdwB0Gv47LoBDKz80t-73" value="" style="endArrow=classic;html=1;rounded=0;align=right;" parent="1" source="ETn6ECXSMYjD5wPIMApW-125" target="ETn6ECXSMYjD5wPIMApW-132" edge="1">
          <mxGeometry x="-0.0009" width="50" height="50" relative="1" as="geometry">
            <mxPoint x="371" y="1011.58" as="sourcePoint" />
            <mxPoint x="266" y="1091.58" as="targetPoint" />
            <mxPoint as="offset" />
          </mxGeometry>
        </mxCell>
        <mxCell id="QBsdwB0Gv47LoBDKz80t-75" value="&lt;font style=&quot;font-size: 16px;&quot;&gt;s&lt;sub&gt;a&lt;/sub&gt;&lt;/font&gt;" style="ellipse;whiteSpace=wrap;html=1;aspect=fixed;align=center;spacingLeft=75;" parent="1" vertex="1">
          <mxGeometry x="250" y="800.5" width="49.5" height="49.5" as="geometry" />
        </mxCell>
        <mxCell id="QBsdwB0Gv47LoBDKz80t-76" value="" style="ellipse;fillColor=strokeColor;html=1;" parent="1" vertex="1">
          <mxGeometry x="264.5" y="815.25" width="20" height="20" as="geometry" />
        </mxCell>
        <mxCell id="QBsdwB0Gv47LoBDKz80t-77" value="&lt;font style=&quot;font-size: 16px;&quot;&gt;s&lt;sub&gt;a&lt;/sub&gt;&lt;/font&gt;" style="ellipse;whiteSpace=wrap;html=1;aspect=fixed;align=center;spacingLeft=75;" parent="1" vertex="1">
          <mxGeometry x="720.25" y="800.5" width="49.5" height="49.5" as="geometry" />
        </mxCell>
        <mxCell id="QBsdwB0Gv47LoBDKz80t-78" value="" style="ellipse;fillColor=strokeColor;html=1;" parent="1" vertex="1">
          <mxGeometry x="734.75" y="815.25" width="20" height="20" as="geometry" />
        </mxCell>
        <mxCell id="QBsdwB0Gv47LoBDKz80t-79" value="&lt;font style=&quot;font-size: 16px;&quot;&gt;s&lt;sub&gt;e&lt;/sub&gt;&lt;/font&gt;" style="ellipse;whiteSpace=wrap;html=1;aspect=fixed;align=center;spacingLeft=75;" parent="1" vertex="1">
          <mxGeometry x="720" y="1080.75" width="49.5" height="49.5" as="geometry" />
        </mxCell>
        <mxCell id="QBsdwB0Gv47LoBDKz80t-81" value="" style="rounded=0;whiteSpace=wrap;html=1;fillColor=#000000;" parent="1" vertex="1">
          <mxGeometry x="660" y="1020.88" width="40" height="29.25" as="geometry" />
        </mxCell>
        <mxCell id="QBsdwB0Gv47LoBDKz80t-82" value="" style="endArrow=classic;html=1;rounded=0;entryX=0.5;entryY=0;entryDx=0;entryDy=0;exitX=0;exitY=0.5;exitDx=0;exitDy=0;" parent="1" source="QBsdwB0Gv47LoBDKz80t-12" target="QBsdwB0Gv47LoBDKz80t-81" edge="1">
          <mxGeometry width="50" height="50" relative="1" as="geometry">
            <mxPoint x="650" y="940" as="sourcePoint" />
            <mxPoint x="755" y="950" as="targetPoint" />
            <Array as="points">
              <mxPoint x="680" y="965" />
            </Array>
          </mxGeometry>
        </mxCell>
        <mxCell id="QBsdwB0Gv47LoBDKz80t-83" value="" style="endArrow=classic;html=1;rounded=0;exitX=0.5;exitY=1;exitDx=0;exitDy=0;entryX=0;entryY=0.5;entryDx=0;entryDy=0;" parent="1" source="QBsdwB0Gv47LoBDKz80t-81" target="QBsdwB0Gv47LoBDKz80t-79" edge="1">
          <mxGeometry width="50" height="50" relative="1" as="geometry">
            <mxPoint x="755" y="1071" as="sourcePoint" />
            <mxPoint x="755" y="1091" as="targetPoint" />
            <Array as="points">
              <mxPoint x="680" y="1105" />
            </Array>
          </mxGeometry>
        </mxCell>
        <mxCell id="QBsdwB0Gv47LoBDKz80t-84" value="" style="shape=image;verticalLabelPosition=bottom;labelBackgroundColor=default;verticalAlign=top;aspect=fixed;imageAspect=0;image=data:image/png,iVBORw0KGgoAAAANSUhEUgAAAVwAAAFkCAYAAABsP4PsAAAABGdBTUEAALGPC/xhBQAAAAlwSFlzAAAk5wAAJOcB9K2rBgAAABJ0RVh0U29mdHdhcmUAR3JlZW5zaG90XlUIBQAAHpFJREFUeF7t3Qt0Vmed7/Gu2nFGnTOe8VhXqz0ue8ZanTkzaquOp156UavL4/E+2jpqO9YZ61hnnLUgQO+lFwotpdALpWNbIFduBQJNgEAgkIQkEMItQJqQEEIICZCEEEJCQp7jf/M4Bfrnkn17997v97PWb41rlsKbvP/nR7LfvZ/nEgMACAWFCwAhoXABICQULgCEhMIFgJBQuAAQEgoXAEJC4QJASChcAAgJhQsAIaFwkRhDAwP2PwHRROEitgb7+031lCkm/8Yvm9wr3m9mXXKJyXnvu8zSW79m1j/8sOlsaLD/TSAaKFzE0o6cbJP3wQ84JXu+SBnXZmc55QykGoWL2JGfXrVyPV+y33OZWXPPb0z71q32TwHCR+EiVjZMnKgW6kiy8PpPmy0zXjL9PT32TwXCQeEiNra+PEMtULfJvPQSU3TnHaalrMz+DUCwKFzEws68XLU0/cq8a68xG59+2hw7eND+jYD/KFxE3u6CN8xspSSDiPw9y374A9O4fJkZHh62rwDwB4WLSNu7dq3JPKsUw0reVVc6H9D1tLTYVwN4Q+Eistqqq03WO/UyDDtLv36rqVsw3wydOGFfHTByFC4i6XBdnfMQg1Z+qUzO+/7crBs1ynl9wEhRuIic3gMHzJz/+UG18KKUxV+4wdTOnmVO9PXZVw6cH4WLSDnR22tev+5TasFFNVl/eokpvvtXpm3TJvtVADoKF5FxcnDQuVaqlVpcsuCTf2tqnn/e9Hd3268KeAuFi8hYddcv1BKLY+TOiqKf/dS5ywL4IwoXkeBmf4S4ZO5Hr3YeSe5tb7dfLdIVhYuU2/bqK2pRJS3yUEXh977rPMgxfPKk/eqRTihcpFTjskK1nJKevCsvN+sfeMB079ljvxNIBxQuUkY+1c+8TC+kdMqSr37F7Jo7hxMr0gCFi5TobmoyOf/jL9QCStfIgx5r/+N35uCOHfa7hKShcBG6vs5OM/ea/6WWDjmVRZ//nHNtW+5LRnJQuAiV7MAlv0JrJUPeHtlLoviff2laq6rsdxBxRuEiVFWPP64WC7lw5v/vvzabpk51fkNAPFG4CM2+8nK1SMjIIreXrbj9NrOnuJg9e2OGwkUojnd1mbwPXaEWCHGfOVd/2PmtoWf/fvudRpRRuAhF4fe/pxYG8S8F/+//mvr8xebk0JD9riNqKFwEbvMLL6gFQYJJ7uV/acrGjTOdu3fbdwBRQeEiULJRd1jnkZG3J/+mG82OnGwz2N9v3xGkEoWLQOXfcrNaBCTcZL/nMlPy23tMx7Zt9p1BKlC4CMybixaqi5+kNgs/c53Z+vIMM3D0qH2nEBYKF4GQX2HnfOQqdcGTaET2sVj5T3c6t+shHBQuAlE9ebK6yEk0M+/jHzNVEyaYrsZG+w4iCBQufCdHiee+/73qwibRz8LrP202PvWUObJ3r31H4RcKF77bmZerLmQSvyz6+8+a6ilTnN3d4B2FC9/J8eHa4iXxzrxrrzHrRo0yzWvWOAd+YuQoXPjqYG2tulhJspL1Z5eaZf/wQ7N91kzT29Fh331cCIULX8mxMdoCJcnOws9ebyoeecQ5xQPnRuHCV7LwtAVJ0ieyoY6cwswdD29H4cI3/d3d6gIk6ZtFN3zeechCZgMULnwkO1Vpi44Q2U9j2Q9/YBoLC9J6D18KF75Z/+CD6mIj5PTM+8S1pjY7Ky23kaRw4ZsVP7ldXWCEaJFrvXJQZjoVL4UL3+TffJO6sAg5X+T+3oalS+wUJRuFC9/I8/jagiLkYpJ/45dNW3W1naZkonDhm+y/+FN1IREykqz+9d2J3TqSwoUv5FFPbfEQ4iZ5V11p9qwsstOVHBQufNHT2qouHEK8ZNUv7zL9R47YKYs/Che+kEc6tQVDiNfkXXm5aVxWaCct3ihc+GJ3wRvqYiHErxTdeUfsn1ijcOGLba+9qi4SQvxM7hXvN3vXrrVTFz8ULnwhJwRoC4SQIFL52GOxfESYwoUvZHcobWEQElSWfO2rsduLl8KFL0rHjlUXBSFBJvfyvzR7S0rsFEYfhQtflPzu39UFQUgYqXj00VhcYqBw4YviX/2LuhAICStLvvqVyF9ioHDhi6I7fq4uAkLCjFxikEMuo4rChS+W//hH6gIgJBWpGD/eDJ88aaczOihc+KLg299SB5+QVCX/lptNz/79dkKjgcKFL+QWHW3oCUllct77rkjttUvhwheLv/RFdeAJiUJKfnuPGezvt9OaOhQufLHwM9epg05IVDL/bz5hDu7YYSc2NShc+EKGWRtyQqKUzD9k8/TpdmrDR+HCF3P/6iPqgBMSxaz4x5+k5PBKChe+kD1LtcEmJKqRU6bDvnWMwoUv5NNgbagJiXLK7r3XTnA4KFz4IutP9IEmJMqRuQ1zU3MKF77QhpmQOKTqiSfsFAePwoVn8uGDNsiExCHz//rjdpKDR+HCMzlVVRtkQuKS3gMH7DQHi8KFZ4fr6tQhJiQuqc3KtNMcLAoXnsl2eNoQExKXFP38Z3aag0XhwrOduTnqEBMSl+R+4H12moNF4cKz6smT1SEmJE4JY58FCheerRs1Sh1gQuKUTVOn2okODoULz+S5dG2ACYlTCr71TTvRwaFw4Vn+zTepA0xInJJ56SWB75lL4cKzeddeow4wIXFLY2GBnepgULjwLPvd71CHl5C4ZfW//tpOdTAoXHgyePy4OriExDF5V11pJzsYFC486W5qUgeXkLimY/t2O93+o3DhSUtZmTq0hMQ1VRMm2On2H4ULT+rmz1OHlpC4ZtENn7fT7T8KF57UTJumDi0hcU7f4cN2wv1F4cKTsnHj1IElJM6pzc6yE+4vCheeFN15hzqwhMQ5y2/7sZ1wf1G48GTprV9TB5aQOEfuLQ/iGHUKF57wlBlJavauXWun3D8ULlyTM/1nK4NKSBJSOnq0nXT/ULhwrXP3bnVQCUlCFnzyb+2k+4fChWu7C95QB5WQpEQOSPUThQvXqqdMUYeUkKSk4Y2ldtr9QeHCtdW/vlsdUkKSktKMDDvt/qBw4Robj5OkZ9HnP2en3R8ULlzLu/JydUgJSUrkLpwTfX124r2jcOGKDKE2oIQkLXuKi+3Ue0fhwpX2LVvU4SQkaVn/0EN26r2jcOHKrrlz1OEkJGmRzyr8QuHClarHH1eHk5CkRU7z9WtfBQoXrpTff786nIQkMYfr6uzke0PhwpWK8ePVwSQkiWlYkm8n3xsKF65UP/OMOpiEJDHVkyfbyfeGwoUrnQ0N6mASksQU3/0rO/neULhwbfGXvqgOJyFJS/4tN9up94bChWuNK5arw0lI0pL3oSvs1HtD4cITTu0l6ZLB/n479e5RuPCs8rHHOPmBJD4Ha2vtxLtH4cIXcvpD4Q++rw4qIUnIm4sW2ml3j8KFr/q7u52TIDY+/bRZ/a+/Nku/fquZ+9Grnad1tCEmJC6RmfaKwkVoZIex7uZm07Zxo2lcVmhqM2c79zeWjh1rVv3yLrPshz8wb3zj687dD69f9ykz72MfNXkf/IDJ/m/vNJnKAiAkzJSOGWMn2T0KF7EhpwQPHD1qeg8ccC5htG/dalrKypyfqHfkZJvNL75oqiZMcApc7ptccftt5o1vfsMs+j9/b+Z94lpn/97My/TFRMiFsvY/fmcn0T0KF2lHLnu0b95s6hcvMpumTnUWUuH3v2de//QnTfa736EuNkJK/u23doLco3CBs8hTdLXZWabkt/eYhZ+9njswiJM19/zGToh7FC5wAUMDA6a1qsr5aXjJV25RFyNJfuTQVK8oXGCEetvbTc3zz5vFX7hBXZgkmSn+l3+2E+AehQt40NPS4twuJHdVaIuUJCer7vqFfdfdo3ABn7SsW2fyb7pRXawk/ln5T3fad9o9ChfwGdd5kxn5ENUrChfw2f4NG9QFS+IdOcfPKwoX8NnJwUF1wZJ4Z/vM1+w77B6FCwSAByiSF9n/2SsKFwjAnKs/rC5aEt90bNtm3133KFwgAPKEmrZoSXxzorfXvrvuUbhAAPJvvkldtCSemftXH7HvrDcULhAA2QdYW7gknin62U/tO+sNhQsEoOA731YXLoln5FFuP1C4QACW/+gf1IVL4pm26mr7znpD4QIBKLrj5+rCJfFL1p9c4txb7QcKFwhAyb//m7p4Sfwim9P7hcIFAlDxyCPq4iXxS92C+fZd9Y7CBQJQ89xz6uIl8UrWn11qBvv77bvqHYULBEAOtdQWMIlX/NiS8XQULhCA5tWr1QVM4pU9xcX2HfUHhQsE4Ghbm7qASXwy7+Mfs++mfyhcICB5H7pCXcgkHtk5J8++k/6hcIGALL/tx+pCJtHP/L/7GzM8PGzfSf9QuEBAaqZNUxcziX4aluTbd9FfFC4QENk/VVvMJNpZ+LnP2HfQfxQuECD51VRb1CS6aa2qsu+e/yhcIECyy5S2qEk0UzZunH3ngkHhAgGSp5S4WyEeWfiZ63zbpOZcKFwgYLXZWeoCJ9GJ7AjW2dBg37HgULhAwOT2oqW3fk1d6CQa8eMI9ItB4QIhOHbwoMn9wPvUxU5Sm+K7f2XfpeBRuEBI5DaxnPe+S130JDUp/N53zcmhIfsOBY/CBUJ0sLbWzPnwh9TFT8JN/k03+rr14sWgcIGQ9R0+7JwioJUACSdLvnKLOdHXZ9+R8FC4QIo0FhY4O1JphUCCy4qf3G4Gjx+370K4KFwgheT64ZYZL5mc9/25Wg7Ev2RedonZPH26/c6nBoULRMCJY8eczW7mfeJatSyItyz+0hdNV2Oj/W6nDoULREzr+vXO0S6Zl+rlQS4+8puD/AYRxFaLblC4QET19/Q4ZbHw+k+rZULOnbkfvdq5fJCqa7XnQuECMXBwxw5T9eST5o1vfN1kvVMvmXTP7D9Evj/1+Ysj8xPt2ShcIGbkg7a2jRtN9eTJpuDb3zLZ77lMLaB0iPzjs/zHPzI7c3NMf3e3/Q5FF4ULxJz8NNexfbtzNPv6hx82K/7xJ87OV9nvfodaUnHOnI9cZVbcfpvZNHWqaa2sDHx3L79RuECC9R065HwIV5s522yYNMmUjhljVt31C1P43e+YxV+4wcy79hqT89/fo5ZbqiN7TxR865tm/YMPmoalS5z9KOKOwgXg/JR8vKvL2aKwtaLCeShjZ16u86HdhokTTdl995k19/zGFP3sp6bgO982+Td+2Sz41N85P3H6cUkj94r3O/8IVDz6qNld8IbpPXDAvrJkoXABeCZ7EnQ3NZl95eWmbv48557i0rFjnV//pZi1W9zkskfF+PGmfcsW+6ckH4ULIHDyE/TRtjbT09pqetvbnQc90hGFCwAhoXABICQULgCEhMIFgJBQuAAQEgoXAEJC4QJASChcAAgJhQsAIaFwASAkFC4AhITCBYCQULgAEBIKFwBCQuECQEgoXAAICYULACGhcAEgJBQuAISEwgWAkFC4ABASChcpcaKvzxzv7nb+78mhIfv/BZKNwkUgpER7OzpMR12daS4vN7uWLjGbZs005c9OMavuv9+sGDXqjFS+NN201tSYocFB+ycAyUPhYsSGT540fV1dprOpyezfvNk0rlljdixe5BTq+mlTzZrx482K0aPfVqoXk5JHHzVtW7favwlIFgoXKvlV/3Bjo2lev97syF9sambPMhXPTfNUpiPJxld+b44dPmxfDZAMFG6aGxoYMF1795qWDRvMziX5ZsN/vnyqVJUSDDsrx40zDatWcY0XiUHhppkTx4+b9tpa5xJA2TOTQ/lp1WtKJ00yh3bvtl8BEF8Ubho4sn+/qS8qcq6vxqFgz5Wtebmmv6fHflVA/FC4CSUlK5cI1j7xhFpecc2q++4zDcXF3M2AWKJwE0TuHti/ZYupfPEFtaySlLUTJjiXRoA4oXATYKC31/lwSW6p0sopyZEP+Y62t9vvBBBtFG6MHWltda5rFo0dq5ZR2iQjw/kQUG5lA6KMwo2h7n37zMZXX9HLJ41T/NBDzn3DcmkFiCIKN0bkg7BNM19Ty4a8lbIpzzgPbQBRQ+HGQM+BA6Ymc7ZaLuTc2ZyT7VzfBqKCwo0w2fxlc3ZWrO+dTXXkMoNsigNEAYUbQb2HDpktuTkUrY+pfu1VZztIIJUo3AiRuw7k12D51F0rDeItsi3k3spK+90GwkfhRoDsGbvh5RlqSRD/UzXjJXYiQ0pQuCkiO2Dtq64+tYGMUgok2MhOZE2lpfbdAMJB4YZMriPWr1iRlk+FRTFym53soAaEgcINgdyI375zp/PBDR+ERS/rJk7k8WCEgsINkGwlWL9ypSl5/HF1oZPoRHYha9u2zb5zQDAoXJ8NDw+bg2++6RxJw90G8UtdYSGPBiMwFK5P5IkmOUxx7ZNPqguZxCeyA9nAsWP2nQX8Q+F6JEe/yNNgRWPGqIuXxDOycbvsXQH4icJ1QbYBbFq3zjlrS1usJBmR67qHGhrsuw54R+GOQOeePew/m2aR+3U7m5rsBADeULgXIPdoNpeX84BCGkd+0pWj5AGvKNxz6GppMdvmzTWr7r1XXYQkvVL8wAPOXheAFxTuaYYGBpzNTcqnPqsuOpLeKX7wQdPT1manBRg5CvcPZBHVvr7A2U1KW2iE/DGrH37Y9B48aCcHGJm0LdyhEyfMvo0bTcXzz6kLi5BzRe61Zv8FuJF2hSvPzO/IX+xck9MWEyEXE9n0BhiptCjcocFB55iVyukvqouHEDeRJwuBkUh04cpRNbuWLnHOtdIWDCGekpHhPGkIXKzEFa5s7N22dSsnKJBQIvsacz0XFysxhdvX2Wnqli0zqx95RF0YhASVHYsX2SkEzi/Whets7F1baza+8ns29iapyx9mj4cicDFiWbjOMTVFRabkscf0BUBIyKl4bpqzFzJwPrEpXBnmjl27nNtx2NibRDEtGzbYaQV0kS/cgaNHTUNxsbM/qTbkhEQl8huXfGgLnEtkC/dQfb2pyZzNxt4kVtm3aZOdYODtIlW4cqxJY0mJc4qqNsyERD2y8RFwLpEoXNngeXNONht7k0SEhyFwLikrXOeYmtJSU/rUU+rQEhLXbJo10045cKbQC7erudlsnTvHObpEG1ZCYp+MDOcUZ+BsoRTuYH+/aV6/3pRNeUYfUEISFtn6EzhboIUrT99smz/PORNKG0pCkpqarEy7CoC3+F64srF3S1WVWT9tqjqIhKRDZL9lefQcOJ1vhdvb0WFqF77OMTWE2Mix+sDpPBeu/ES7q6CAx20JOSv1K1bYVQKc4qlwjx85wiO3hJwjG199xa4U4BTXhSvH1nAAIyHnTumkSXa1AKe4LtydS/LVISOEnIo8OcmWjTidq8KVn275cIyQC6evq8uuGsBl4bZt26YOFyHkzBxqaLCrBnBZuNsXzFeHixByZnjiDKdzVbg1s2epw0UIOTONa9faVQO4LFznmBtluAghZ6ZxzRq7agC3hTtrpjpchJAzI8dDAX9E4RISYHavXm1XDeD2Gm7mbHW4CCFnZk9ZmV01gNvCzcpUh4sQcmY4VBKnc1W4m7Oz1OEihJwZdgzD6ShcQoJKRoYZGhiwqwZwW7g52fqAEUL+K+XPTrErBjjFVeFuyc1RB4wQ8lZqX19gVwxwiqvClVN3tQEjhLyV1poau2KAU1wVrvzLrQ0YIeRUisaMMSf6+uyKAU5xVbjshUvI+SMfLANnc1W4dcuWqUNGCDmVw42NdrUAb3FVuPUrV6pDRggZZcqeftquFOBMrgq3saREHTRCyCjTXFFhVwpwJleF21xerg4aIemetRMmmJNDQ3alAGdyVbgtGzaow0ZIukeOnwLOxVXh7t+8WR02QtI5ldNftCsE0Lkq3PbaWnXgCEnbjB5tuvftsysE0Lkq3INvvqkPHSFpml1Ll9jVAZybq8LtbGpSh46QdEzpU0+ZocFBuzqAc3NVuF0tLergEZJ2ycgwR1pb7coAzs9V4fYcOKAPHyFplvqiIrsqgAtzVbj9PT3q8BGSTlk/baoZPnnSrgrgwlwV7vDwsLMbkjaEhKRDVo4bZ3o7OuyKAC6Oq8IV8kSNNoiEpEP2VlbalQBcPNeFWzXjJXUQCUl6Ns2aaVcBMDKuC3fbvLnqMBKS5KwZP94MHDtmVwEwMq4Lly0aSTrmUH29XQHAyLku3H3V1epAEpLUyEkngBeuC5enzUg6RT4k5mkyeOW6cOWAPG0wCUli2HYRfnBduEKeIdeGk5AkpfKl6XbiAW88Fe72BfPVASUkKZEHfHra2uzEA954Ktx9mzapQ0pIElI0dqxp37HDTjvgnafCPd7drQ4qIXGPPLrbUVdnJx3wh6fCFeVTn1UHlpC4RjalYZ8EBMFz4TaVlqpDS0jskpHhPNDDDmAIiufClccc2TmMxD3yyK7cWw4EyXPhiprM2eoQExKHyEZMA0eP2mkGguNL4XY1N6uDTEjUU1dYyCUEhMaXwhUbX31FHWhCophV99/vHPcPhMm3wnXOORs9Wh1uQqKUdRMnmt6DB+3kAuHxrXDFtvnz1AEnJCrZ8PIMZx8QIBV8LVwZZPm0Vxt0QlKd2tcXmJNDQ3ZagfD5WrjicGOjcz+jNvCEpCSjRzv3iwOp5nvhiqZ16/TBJyTkyIdjHbt22ckEUiuQwhWbc7LVBUBIWFn7xBPOh7lAVARWuEMDA6bs6afVhUBI0Kl88QUz0NtrpxGIhsAKV/QeOuT8SqctCEKCyta5czgOB5EUaOEK2U9UWxSE+J6MDLOnrMxOHhA9gReuqF+xQl8ghPiU4oceMocaGuzEAdEUSuEODw+zwQ0JLGXPTDZ9nZ122oDoCqVwhVxTkw8ytAVDiNvUZGU6H9ACcRBa4QrZO7d00iR14RD/svrhh822eXPN7tWrTcXzz6n/ndhn9GjTUFxsJwuIh1ALV8ivfqsfeURfRMRTKqe/6OyAdfZ2g/LB5ap771X/N3GMs9MXhzsihkIvXHGktdWsuu8+dTGRESYjw/m1uqulxX53dV179zofLKl/Rowi93Zz3hjiKiWFK+REVPZccB/5B2tH/uIRfVgkRVXy2GPqnxeH7FySz/21iLWUFa5o2bBBXVjkPBk92tn1Sq6Hu3Hs8OHYlW7Jo4+aQ/X19isA4iulhSvqi4rURUbeHjm++0KXDi5GnEpXLpe4/ccFiJqUF65g4/Lzp/iBB0zz+vW+nr0V9dKVD8b2VVfbVwskQyQKV4qEM9H0bJ2TF9gmLHL9V46b0f7eVGZrXq45fuSIfZVAckSicIXcvC6/MmsLMB0jdxSEsY+rlHn51GfV1xB2Kl543rmbAkiqyBSuGDh61NnDVFuM6ZSqGS+Z/p4e+10J3onjx03lS9PV1xJGSh5/3OzfssW+GiC5IlW4Qk5TTcL9oq6SkWHqV6709VrtxZLbrWRbQ/V1BRS5TitPi3GrF9JF5ApXdDU3m6KxY9VFmtTIB1idTU32O5A6rTU1pvjBB9XX6FfWPvmkaVyzhtNzkXYiWbhib2WluliTmOrXXo3UrU9yOUNek/ZaXUeeiMuc7dxPK7vHAekosoUrwv4VNxWpKyyMbAG1bd3q+ZgkuSYvlw3k+jyQ7iJduEMnTpjyZ6eoCznuKRozJhb3mco/BrJRjBwKejHHJcnXJZvovLl8uencs4efZoHTRLpwhdygLzf+a4s7rpEPBaWM4ubk0JBznbm5vNzsWLzI+Q1E7pmV/yzXZOXEBflHEoAu8oUrknQumvyKzukEQHqKReGKumXL1AKLU+SDqMH+fvsVAUg3sSlcuTd1w8sz1CKLQ3YtXZKS+2sBREdsClfIY6hx21pQPkSSbSgBIFaFK+RZeykxrdyiFnmA4HBjo33lANJd7ApXyKfkWsFFKfI0Ve+hQ/YVA0BMC1dsyc1Riy4KkV2v2DQbwNliW7hyv6fXp6CCyObsLDZjAaCKbeEK2VnsYp5+Ciu7Cgp4sgrAOcW6cMWB7dvV8gs1GRmmuaLCviIA0MW+cEUqz0ST48rlyHcAuJBEFK4czyN3BWiFGGTk+O4j+/fbVwEA55eIwhWyabn8aq8VYxApm/KMOd7dbf92ALiwxBSukC0BtXL0O5tmzWRPBAAjlqjCle0DAz35d/ToU2eOcScCABcSVbiit6PDrBw3Ti9MD5Hbz2SbSABwK3GFK/x+9Ld00iSnyAHAi0QWrtj4+/9Uy3Ok2TTzNXPi+HH7pwKAe4ktXDl51tNx33K9tqiI67UAfJPYwhXtO3e6ulVM7q+V87kAwE+JLlzRtm3biEpXbvlipy8AQUh84Qr5SXfdxIlqwf4xcpJuS1WV/V8AgP/SonCFnCe2f8sWs/HVV5xtHeX6rlw6kO0U5a4GPhgDELS0KVwASDUKFwBCQuECQEgoXAAICYULACGhcAEgJBQuAISEwgWAkFC4ABASChcAQkLhAkBIKFwACAmFCwAhoXABICQULgCEhMIFgFAY8/8B1+quFJC4P/8AAAAASUVORK5CYII=;" parent="1" vertex="1">
          <mxGeometry x="705.42" y="579" width="20.53" height="21" as="geometry" />
        </mxCell>
      </root>
    </mxGraphModel>
  </diagram>
</mxfile>
